<svg xmlns="http://www.w3.org/2000/svg" width="995.75" height="810.331" viewBox="0 0 995.75 810.331">
  <g id="undraw_book_lover_mkck" transform="translate(0 -2.839)">
    <g id="Imagem">
      <path id="Caminho_138" data-name="Caminho 138" d="M435.45,690.5,93.17,688.83,59.16,609.06l120.26-8.73-20.96-87.46,237.86-30.83L168.55,402.86l20.12-4.78,366.25,59.75L534.75,594.32l-28.83,75.01Z" fill="#ff3c3c"/>
      <path id="Caminho_139" data-name="Caminho 139" d="M187,698.84s21-3.36,33.6,11.48c0,0-9.24,7.28-29.12-2.8Z" transform="translate(-88.58 -43.42)" fill="#ff3c3c"/>
      <path id="Caminho_140" data-name="Caminho 140" d="M184.8,698.51S171.4,715,178,733.36c0,0,10.92-4.37,12.11-26.63Z" transform="translate(-88.58 -43.42)" fill="#ff3c3c"/>
      <path id="Caminho_141" data-name="Caminho 141" d="M172.76,671.4s8.4-15.41,42,6.16c0,0-4.48,10.36-19.32,9.52S176.68,679.52,172.76,671.4Z" transform="translate(-88.58 -43.42)" fill="#ff3c3c"/>
      <path id="Caminho_142" data-name="Caminho 142" d="M170.59,670.29s-17.43-2-19.12,37.9c0,0,11.05,2.29,18.9-10.33S175,678.16,170.59,670.29Z" transform="translate(-88.58 -43.42)" fill="#ff3c3c"/>
      <path id="Caminho_143" data-name="Caminho 143" d="M160.44,638.46s9.8-27.16,45.36-7.84c0,0-8.12,24.92-41.72,17.08Z" transform="translate(-88.58 -43.42)" fill="#ff3c3c"/>
      <path id="Caminho_144" data-name="Caminho 144" d="M149.52,597.86s18.48-27.44,51.24-2c0,0-11.48,25.76-48.44,11.76Z" transform="translate(-88.58 -43.42)" fill="#ff3c3c"/>
      <path id="Caminho_145" data-name="Caminho 145" d="M145.6,559.22s21.56-25.21,54,0c0,0-20.44,22.12-54,6.44Z" transform="translate(-88.58 -43.42)" fill="#ff3c3c"/>
      <path id="Caminho_146" data-name="Caminho 146" d="M142.24,521.69s21.84-26.32,52.92-1.4c0,0-24.64,23.24-52.92,7.56Z" transform="translate(-88.58 -43.42)" fill="#ff3c3c"/>
      <path id="Caminho_147" data-name="Caminho 147" d="M144.2,488.37s23-33.88,52.08-10.92c0,0-24.64,29.12-52.08,17.36Z" transform="translate(-88.58 -43.42)" fill="#ff3c3c"/>
      <path id="Caminho_148" data-name="Caminho 148" d="M149.52,449.45s24.36-33.6,52.64-7.84c0,0-28.84,29.12-52.64,14Z" transform="translate(-88.58 -43.42)" fill="#ff3c3c"/>
      <path id="Caminho_149" data-name="Caminho 149" d="M157.64,414.66s28.84-31.58,54-19c0,0-30.05,33.54-55.26,27.38Z" transform="translate(-88.58 -43.42)" fill="#ff3c3c"/>
      <path id="Caminho_150" data-name="Caminho 150" d="M167.72,381.68S201,343,220.36,355.92c0,0-24.52,30-55,33Z" transform="translate(-88.58 -43.42)" fill="#ff3c3c"/>
      <path id="Caminho_151" data-name="Caminho 151" d="M182.27,343.43s29.13-31.58,50.41-23.74c0,0-24.92,32.76-54.32,33.6Z" transform="translate(-88.58 -43.42)" fill="#ff3c3c"/>
      <path id="Caminho_152" data-name="Caminho 152" d="M195.44,307.65s32.2-30.24,46.2-24.92c0,0-23.24,33.6-47.6,31.64Z" transform="translate(-88.58 -43.42)" fill="#ff3c3c"/>
      <path id="Caminho_153" data-name="Caminho 153" d="M208.32,274.61s27.72-36.13,42.85-33.33c0,0-16.81,32.21-42.85,37Z" transform="translate(-88.58 -43.42)" fill="#ff3c3c"/>
      <path id="Caminho_154" data-name="Caminho 154" d="M222.3,230.06s24.5-27.69,37.74-27.63c0,0-19.34,37-38.75,36.66Z" transform="translate(-88.58 -43.42)" fill="#ff3c3c"/>
      <path id="Caminho_155" data-name="Caminho 155" d="M230.58,200.4l23.67-57.68s1.18,52.14-26.68,68.38Z" transform="translate(-88.58 -43.42)" fill="#ff3c3c"/>
      <path id="Caminho_156" data-name="Caminho 156" d="M240.19,136.79s3.92-48.17,1.4-52.09c0,0,16.92,40.05-1.56,73.37Z" transform="translate(-88.58 -43.42)" fill="#ff3c3c"/>
      <path id="Caminho_157" data-name="Caminho 157" d="M159.52,637.82s-24.54-15.21-40.43,22c0,0,21.84,14.5,43.32-12.51Z" transform="translate(-88.58 -43.42)" fill="#ff3c3c"/>
      <path id="Caminho_158" data-name="Caminho 158" d="M148.73,596.31s-30.1-13.73-44.7,25.12c0,0,23.25,16,47.44-15.3Z" transform="translate(-88.58 -43.42)" fill="#ff3c3c"/>
      <path id="Caminho_159" data-name="Caminho 159" d="M144.2,561.53s-21.56-25.21-54,0c0,0,20.44,22.12,54,6.44Z" transform="translate(-88.58 -43.42)" fill="#ff3c3c"/>
      <path id="Caminho_160" data-name="Caminho 160" d="M141.5,521.69s-21.84-26.32-52.92-1.4c0,0,24.64,23.24,52.92,7.56Z" transform="translate(-88.58 -43.42)" fill="#ff3c3c"/>
      <path id="Caminho_161" data-name="Caminho 161" d="M144.2,489.33s-15.32-37.95-48.62-21.63c0,0,18,33.65,47.26,27.93Z" transform="translate(-88.58 -43.42)" fill="#ff3c3c"/>
      <path id="Caminho_162" data-name="Caminho 162" d="M151.45,449.26s-15.23-38.61-49-20.71c0,0,20.68,35.39,47.5,26.67Z" transform="translate(-88.58 -43.42)" fill="#ff3c3c"/>
      <path id="Caminho_163" data-name="Caminho 163" d="M160.89,414.85s-6-42.33-34-46.12c0,0,5.94,44.64,30.23,53.75Z" transform="translate(-88.58 -43.42)" fill="#ff3c3c"/>
      <path id="Caminho_164" data-name="Caminho 164" d="M168.43,381.76s-2.34-51-25.49-52.78c0,0,.78,38.71,22.88,60Z" transform="translate(-88.58 -43.42)" fill="#ff3c3c"/>
      <path id="Caminho_165" data-name="Caminho 165" d="M184.67,342s-6.9-42.41-29-47.59c0,0,2.74,41.07,26.81,58Z" transform="translate(-88.58 -43.42)" fill="#ff3c3c"/>
      <path id="Caminho_166" data-name="Caminho 166" d="M198.06,308s-.23-44.18-13.73-50.67c0,0-8.37,40,9.82,56.31Z" transform="translate(-88.58 -43.42)" fill="#ff3c3c"/>
      <path id="Caminho_167" data-name="Caminho 167" d="M209.35,274.11s-1.89-45.49-15.87-51.9c0,0-4.78,36,13.78,54.88Z" transform="translate(-88.58 -43.42)" fill="#ff3c3c"/>
      <path id="Caminho_168" data-name="Caminho 168" d="M224.25,233.69s-.08-37-10.06-45.68c0,0-9.92,40.53,4.85,53.12Z" transform="translate(-88.58 -43.42)" fill="#ff3c3c"/>
      <path id="Caminho_169" data-name="Caminho 169" d="M229.41,198.58,219.7,137s-13.19,50.46,10.17,72.7Z" transform="translate(-88.58 -43.42)" fill="#ff3c3c"/>
      <path id="Caminho_170" data-name="Caminho 170" d="M231.3,137.37s-24.92-41.4-24.41-46c0,0,2.65,43.39,34,65Z" transform="translate(-88.58 -43.42)" fill="#ff3c3c"/>
      <path id="Caminho_171" data-name="Caminho 171" d="M234.22,125.14s-23.52-58.8-34.16-63.56c0,0,33.6,17.08,36.12,61.88Z" transform="translate(-88.58 -43.42)" fill="#ff3c3c"/>
      <path id="Caminho_172" data-name="Caminho 172" d="M221.17,239.44l-1.61-.49c19.85-64.73,24.8-106,13.95-116.35l1.15-1.22C246.17,132.3,241.5,173.12,221.17,239.44Z" transform="translate(-88.58 -43.42)" fill="#444053"/>
      <path id="Caminho_173" data-name="Caminho 173" d="M166.51,391l-2.38-.85c2.11-5.93,4.38-11.95,6.76-17.88,20.72-51.64,38.36-99.68,49.67-136.56l2.07-1c-11.33,36.95-28.66,86.83-49.4,138.54C170.86,379.07,168.6,385.06,166.51,391Z" transform="translate(-88.58 -43.42)" fill="#444053"/>
      <path id="Caminho_174" data-name="Caminho 174" d="M216.59,747.28c-.32-.35-32.49-36.58-54.92-98.43A364.179,364.179,0,0,1,140,536.07c-1.54-48.13,8.56-101.87,25.86-150.69l1.88,2.2c-38.84,109.57-23.41,203.46-2.94,260,22.19,61.29,54,97.12,54.31,97.48Z" transform="translate(-88.58 -43.42)" fill="#444053"/>
      <path id="Caminho_175" data-name="Caminho 175" d="M719.31,670.36s-22.67,27.67-4.67,69.5l-181,78.5L516.27,822l-8-35,5.35-44.17V718.69Z" transform="translate(-88.58 -43.42)" fill="#d5d6db"/>
      <path id="Caminho_176" data-name="Caminho 176" d="M59.16,609.06l250.52-45.67,331.95,52.88L435.45,690.5Z" fill="#ff3c3c"/>
      <path id="Caminho_177" data-name="Caminho 177" d="M59.16,609.06l250.52-45.67,331.95,52.88L435.45,690.5Z" fill="#ff3c3c"/>
      <path id="Caminho_178" data-name="Caminho 178" d="M147.74,652.47s-23.43,44.39,3.57,85.39l371.5,80.5S499.75,783,524,733.92Z" transform="translate(-88.58 -43.42)" fill="#ff3c3c"/>
      <path id="Caminho_179" data-name="Caminho 179" d="M147.74,652.47s-23.43,44.39,3.57,85.39l371.5,80.5S499.75,783,524,733.92Z" transform="translate(-88.58 -43.42)" opacity="0.1"/>
      <path id="Caminho_180" data-name="Caminho 180" d="M158.81,667.86s-13.39,32.48,0,53.5" transform="translate(-88.58 -43.42)" opacity="0.1"/>
      <path id="Caminho_181" data-name="Caminho 181" d="M522.81,818.36l207.4-88.5s11.6,2.5,4.1,11-207.5,86-207.5,86l-375.5-89Z" transform="translate(-88.58 -43.42)" fill="#ff3c3c"/>
      <path id="Caminho_182" data-name="Caminho 182" d="M522.81,818.36l207.4-88.5s11.6,2.5,4.1,11-207.5,86-207.5,86l-375.5-89Z" transform="translate(-88.58 -43.42)" opacity="0.1"/>
      <path id="Caminho_183" data-name="Caminho 183" d="M505.81,742.86s-20,24,0,60" transform="translate(-88.58 -43.42)" opacity="0.1"/>
      <rect id="Retângulo_20" data-name="Retângulo 20" width="94.57" height="1" transform="translate(424.35 728.962) rotate(-18.45)" opacity="0.1"/>
      <rect id="Retângulo_21" data-name="Retângulo 21" width="115.23" height="1" transform="translate(424.316 737.013) rotate(-20.82)" opacity="0.1"/>
      <rect id="Retângulo_22" data-name="Retângulo 22" width="133.56" height="1" transform="translate(424.918 746.503) rotate(-22.26)" opacity="0.1"/>
      <rect id="Retângulo_23" data-name="Retângulo 23" width="153.74" height="1" transform="translate(426.36 754.871) rotate(-24.31)" opacity="0.1"/>
      <rect id="Retângulo_24" data-name="Retângulo 24" width="168.15" height="1" transform="matrix(0.916, -0.401, 0.401, 0.916, 427.472, 758.943)" opacity="0.1"/>
      <rect id="Retângulo_25" data-name="Retângulo 25" width="201.22" height="1" transform="translate(429.797 765.783) rotate(-23.36)" opacity="0.1"/>
      <path id="Caminho_184" data-name="Caminho 184" d="M152.23,613.94l176-37,107.22,20.5-144.22,46.5Z" fill="#fff" opacity="0.3"/>
      <path id="Caminho_185" data-name="Caminho 185" d="M730.21,659.69s9.1,3.67,3.76,9.34S524,733.92,524,733.92Z" transform="translate(-88.58 -43.42)" fill="#ff3c3c"/>
      <path id="Caminho_186" data-name="Caminho 186" d="M818.6,574.18s-22.66,27.66-4.66,69.5l-181,78.5-17.37,3.66-8-35L613,646.68V622.51Z" transform="translate(-88.58 -43.42)" fill="#d5d6db"/>
      <path id="Caminho_187" data-name="Caminho 187" d="M158.46,512.87l250.51-45.66,331.96,52.88L534.75,594.32Z" fill="#3a3768"/>
      <path id="Caminho_188" data-name="Caminho 188" d="M247,556.29s-23.44,44.39,3.56,85.39l371.5,80.5s-23.05-35.39,1.23-84.45Z" transform="translate(-88.58 -43.42)" fill="#3a3768"/>
      <path id="Caminho_189" data-name="Caminho 189" d="M247,556.29s-23.44,44.39,3.56,85.39l371.5,80.5s-23.05-35.39,1.23-84.45L505.81,612.3Z" transform="translate(-88.58 -43.42)" opacity="0.1"/>
      <path id="Caminho_190" data-name="Caminho 190" d="M258.1,571.68s-13.38,32.47,0,53.5" transform="translate(-88.58 -43.42)" opacity="0.1"/>
      <path id="Caminho_191" data-name="Caminho 191" d="M622.1,722.18l207.41-88.5s11.59,2.5,4.09,11-207.5,86-207.5,86l-375.5-89Z" transform="translate(-88.58 -43.42)" fill="#3a3768"/>
      <path id="Caminho_192" data-name="Caminho 192" d="M622.1,722.18l207.41-88.5s11.59,2.5,4.09,11-207.5,86-207.5,86l-375.5-89Z" transform="translate(-88.58 -43.42)" opacity="0.1"/>
      <path id="Caminho_193" data-name="Caminho 193" d="M605.1,646.68s-20,24,0,60" transform="translate(-88.58 -43.42)" opacity="0.1"/>
      <rect id="Retângulo_26" data-name="Retângulo 26" width="94.57" height="1" transform="translate(523.648 632.792) rotate(-18.45)" opacity="0.1"/>
      <rect id="Retângulo_27" data-name="Retângulo 27" width="115.23" height="1" transform="translate(523.627 640.839) rotate(-20.82)" opacity="0.1"/>
      <rect id="Retângulo_28" data-name="Retângulo 28" width="133.56" height="1" transform="translate(524.214 650.315) rotate(-22.26)" opacity="0.1"/>
      <rect id="Retângulo_29" data-name="Retângulo 29" width="153.74" height="1" transform="translate(525.668 658.686) rotate(-24.31)" opacity="0.1"/>
      <rect id="Retângulo_30" data-name="Retângulo 30" width="168.15" height="1" transform="matrix(0.916, -0.401, 0.401, 0.916, 526.765, 662.745)" opacity="0.1"/>
      <rect id="Retângulo_31" data-name="Retângulo 31" width="201.22" height="1" transform="translate(529.098 669.584) rotate(-23.36)" opacity="0.1"/>
      <path id="Caminho_194" data-name="Caminho 194" d="M251.53,517.76l176-37,107.22,20.5-144.22,46.5Z" fill="#fff" opacity="0.45"/>
      <path id="Caminho_195" data-name="Caminho 195" d="M829.51,563.51s9.09,3.67,3.76,9.33-209.94,64.89-209.94,64.89Z" transform="translate(-88.58 -43.42)" fill="#3a3768"/>
      <path id="Caminho_196" data-name="Caminho 196" d="M828,464.15s-22.67,49.67-4.67,91.5l-181,56.5L625,615.82l-8-35,5.35-44.17V512.48Z" transform="translate(-88.58 -43.42)" fill="#d5d6db"/>
      <path id="Caminho_197" data-name="Caminho 197" d="M167.89,402.85l250.52-45.67,331.96,52.88L544.18,484.29Z" fill="#ff3c3c"/>
      <path id="Caminho_198" data-name="Caminho 198" d="M256.47,446.26S233,490.65,260,531.65l371.5,80.5s-23.06-35.39,1.22-84.44Z" transform="translate(-88.58 -43.42)" fill="#ff3c3c"/>
      <path id="Caminho_199" data-name="Caminho 199" d="M256.47,446.26S233,490.65,260,531.65l371.5,80.5s-23.06-35.39,1.22-84.44Z" transform="translate(-88.58 -43.42)" opacity="0.1"/>
      <path id="Caminho_200" data-name="Caminho 200" d="M267.54,461.65s-13.39,32.48,0,53.5" transform="translate(-88.58 -43.42)" opacity="0.1"/>
      <path id="Caminho_201" data-name="Caminho 201" d="M631.54,612.15l207.4-66.5s11.6,2.5,4.1,11-207.5,64-207.5,64l-375.5-89Z" transform="translate(-88.58 -43.42)" fill="#ff3c3c"/>
      <path id="Caminho_202" data-name="Caminho 202" d="M631.54,612.15l207.4-66.5s11.6,2.5,4.1,11-207.5,64-207.5,64l-375.5-89Z" transform="translate(-88.58 -43.42)" opacity="0.1"/>
      <path id="Caminho_203" data-name="Caminho 203" d="M614.54,536.65s-20,24,0,60" transform="translate(-88.58 -43.42)" opacity="0.1"/>
      <rect id="Retângulo_32" data-name="Retângulo 32" width="94.57" height="1" transform="translate(533.09 522.76) rotate(-18.45)" opacity="0.1"/>
      <rect id="Retângulo_33" data-name="Retângulo 33" width="115.23" height="1" transform="translate(533.063 530.813) rotate(-20.82)" opacity="0.1"/>
      <rect id="Retângulo_34" data-name="Retângulo 34" width="133.56" height="1" transform="translate(533.64 540.294) rotate(-22.26)" opacity="0.1"/>
      <rect id="Retângulo_35" data-name="Retângulo 35" width="153.74" height="1" transform="translate(535.109 548.655) rotate(-24.31)" opacity="0.1"/>
      <rect id="Retângulo_36" data-name="Retângulo 36" width="168.15" height="1" transform="matrix(0.916, -0.401, 0.401, 0.916, 536.21, 552.724)" opacity="0.1"/>
      <rect id="Retângulo_37" data-name="Retângulo 37" width="201.22" height="1" transform="translate(538.54 559.569) rotate(-23.36)" opacity="0.1"/>
      <path id="Caminho_204" data-name="Caminho 204" d="M260.96,407.73l176-37,107.22,20.5-144.22,46.5Z" fill="#fff" opacity="0.3"/>
      <path id="Caminho_205" data-name="Caminho 205" d="M838.94,453.48s9.1,3.67,3.76,9.34-209.94,64.89-209.94,64.89Z" transform="translate(-88.58 -43.42)" fill="#ff3c3c"/>
      <path id="Caminho_206" data-name="Caminho 206" d="M399,149.92s-38-2.29-33.56,24.37c0,0-.89,4.71,3.38,6.85,0,0,.07-2,3.9-1.31a17.051,17.051,0,0,0,4.14.2,8.62,8.62,0,0,0,5.05-2.08h0s10.69-4.42,14.85-21.9c0,0,3.08-3.81,3-4.79L393.32,154s2.19,4.63.47,8.48c0,0-.21-8.31-1.45-8.12-.25,0-3.33,1.61-3.33,1.61s3.77,8.07.92,13.93c0,0,1.08-9.94-2.1-13.35l-4.52,2.64s4.41,8.33,1.42,15.13c0,0,.77-10.43-2.37-14.49l-4.1,3.2s4.15,8.21,1.62,13.85c0,0-.33-12.14-2.5-13.06,0,0-3.59,3.16-4.13,4.46,0,0,2.84,6,1.07,9.11,0,0-1.07-8.09-2-8.13,0,0-3.57,5.36-3.94,9a19.46,19.46,0,0,1,3.07-9.54,10.71,10.71,0,0,0-5.46,2.83s.55-3.79,6.35-4.12c0,0,2.95-4.07,3.74-4.31,0,0-5.77-.49-9.26,1.06,0,0,3.08-3.57,10.31-2l4-3.3s-7.58-1-10.8.11c0,0,3.71-3.16,11.89-.86l4.41-2.63s-6.47-1.39-10.32-.89c0,0,4.06-2.19,11.61.18l3.14-1.41s-4.73-.93-6.12-1.08-1.46-.53-1.46-.53a16.51,16.51,0,0,1,8.9,1S399.13,150.34,399,149.92Z" transform="translate(-88.58 -43.42)" fill="#ff3c3c"/>
      <path id="Caminho_207" data-name="Caminho 207" d="M933.6,259.5s-38-2.29-33.56,24.37c0,0-.89,4.71,3.38,6.85,0,0,.07-2,3.9-1.31a17.619,17.619,0,0,0,4.14.2,8.59,8.59,0,0,0,5-2.08h0s10.7-4.42,14.85-21.9c0,0,3.08-3.81,3-4.79l-6.42,2.74s2.19,4.63.47,8.48c0,0-.21-8.31-1.44-8.12-.25,0-3.34,1.61-3.34,1.61s3.77,8.07.93,13.93c0,0,1.08-9.94-2.11-13.35l-4.52,2.64s4.41,8.33,1.42,15.13c0,0,.77-10.43-2.37-14.49l-4.09,3.2s4.14,8.21,1.61,13.85c0,0-.33-12.14-2.5-13.06,0,0-3.58,3.16-4.13,4.46,0,0,2.84,6,1.08,9.11,0,0-1.08-8.09-2-8.13,0,0-3.57,5.36-3.94,9a19.4,19.4,0,0,1,3.08-9.54,10.759,10.759,0,0,0-5.47,2.83s.56-3.79,6.35-4.12c0,0,2.95-4.07,3.74-4.32,0,0-5.76-.48-9.26,1.07,0,0,3.08-3.57,10.31-2l4-3.3s-7.59-1-10.8.11c0,0,3.7-3.16,11.89-.86l4.4-2.63s-6.47-1.39-10.32-.89c0,0,4.06-2.19,11.61.18l3.15-1.41s-4.74-.93-6.13-1.08-1.46-.53-1.46-.53a16.39,16.39,0,0,1,8.9,1S933.72,259.92,933.6,259.5Z" transform="translate(-88.58 -43.42)" fill="#ff3c3c" opacity="0.1"/>
      <path id="Caminho_208" data-name="Caminho 208" d="M463,314.62s-16.56-34.33-37.64-17.41c0,0-4.55,1.52-4.33,6.29,0,0,1.75-.91,3,2.77a17.719,17.719,0,0,0,1.84,3.7,8.63,8.63,0,0,0,4.29,3.4h0s9.07,7.18,26.36,2.28c0,0,4.83.83,5.62.25l-5.52-4.27s-3,4.17-7.18,4.54c0,0,7.16-4.23,6.39-5.21-.16-.2-3-2.13-3-2.13s-5.21,7.23-11.71,7.6c0,0,9.2-3.9,10.62-8.35l-4.5-2.66s-5.13,7.92-12.52,8.62c0,0,9.48-4.41,11.49-9.13l-4.78-2s-5.15,7.62-11.31,8.17c0,0,10.44-6.21,10.18-8.56,0,0-4.51-1.58-5.91-1.43,0,0-3.82,5.39-7.42,5.39,0,0,6.53-4.89,6.13-5.68,0,0-6.42-.5-9.8,1a19.469,19.469,0,0,1,9.83-2,10.77,10.77,0,0,0-5.14-3.39s3.58-1.36,6.69,3.53c0,0,5,.59,5.59,1.16,0,0-2.39-5.26-5.44-7.55,0,0,4.62.93,6.73,8l4.85,1.92s-2.79-7.12-5.36-9.37c0,0,4.56,1.69,6.55,10l4.44,2.56s-1.93-6.33-4.25-9.44c0,0,3.89,2.48,5.5,10.22l2.77,2.06s-1.5-4.59-2-5.87-.25-1.54-.25-1.54a16.41,16.41,0,0,1,3.48,8.25S462.64,314.92,463,314.62Z" transform="translate(-88.58 -43.42)" fill="#ff3c3c" opacity="0.1"/>
      <path id="Caminho_209" data-name="Caminho 209" d="M846.78,211s-16.55-34.33-37.64-17.41c0,0-4.54,1.52-4.33,6.29,0,0,1.76-.9,3,2.77a17.342,17.342,0,0,0,1.85,3.71,8.58,8.58,0,0,0,4.28,3.39h0s9.08,7.18,26.36,2.29c0,0,4.83.82,5.63.24L840.44,208s-3,4.18-7.17,4.55c0,0,7.15-4.24,6.38-5.22-.16-.2-3-2.13-3-2.13s-5.2,7.23-11.71,7.6c0,0,9.21-3.9,10.63-8.34L831,201.82s-5.12,7.91-12.52,8.62c0,0,9.48-4.42,11.5-9.14l-4.79-2s-5.15,7.63-11.3,8.17c0,0,10.43-6.21,10.17-8.55,0,0-4.5-1.59-5.9-1.43,0,0-3.82,5.38-7.43,5.38,0,0,6.54-4.89,6.14-5.68,0,0-6.42-.5-9.81,1a19.46,19.46,0,0,1,9.83-2,10.709,10.709,0,0,0-5.13-3.39s3.58-1.36,6.69,3.53c0,0,5,.6,5.59,1.17,0,0-2.39-5.27-5.45-7.56,0,0,4.62.94,6.73,8.05l4.86,1.92s-2.79-7.13-5.36-9.38c0,0,4.56,1.69,6.54,10l4.45,2.56s-1.94-6.32-4.26-9.44c0,0,3.9,2.48,5.5,10.22l2.77,2.06s-1.49-4.59-2-5.87-.25-1.53-.25-1.53a16.45,16.45,0,0,1,3.47,8.25S846.47,211.32,846.78,211Z" transform="translate(-88.58 -43.42)" fill="#ff3c3c" opacity="0.1"/>
      <path id="Caminho_210" data-name="Caminho 210" d="M899.67,380.81S883.12,346.47,862,363.39c0,0-4.54,1.52-4.33,6.29,0,0,1.76-.9,3,2.77a17.33,17.33,0,0,0,1.84,3.71,8.58,8.58,0,0,0,4.28,3.39h0s9.08,7.19,26.37,2.29c0,0,4.82.83,5.62.24l-5.52-4.27s-3,4.18-7.18,4.55c0,0,7.15-4.24,6.38-5.22-.16-.2-3-2.13-3-2.13s-5.2,7.23-11.71,7.61c0,0,9.21-3.91,10.63-8.35l-4.51-2.66s-5.12,7.92-12.52,8.62c0,0,9.48-4.42,11.5-9.14l-4.79-2s-5.15,7.62-11.3,8.17c0,0,10.44-6.21,10.18-8.56,0,0-4.51-1.59-5.91-1.43,0,0-3.82,5.38-7.43,5.38,0,0,6.54-4.89,6.14-5.68,0,0-6.42-.5-9.81,1a19.52,19.52,0,0,1,9.84-2,10.69,10.69,0,0,0-5.14-3.39s3.58-1.37,6.69,3.53c0,0,5,.59,5.59,1.16,0,0-2.39-5.26-5.44-7.56,0,0,4.62.94,6.73,8.05l4.85,1.92s-2.79-7.13-5.36-9.37c0,0,4.56,1.68,6.54,10l4.45,2.55s-1.94-6.32-4.26-9.44c0,0,3.9,2.48,5.51,10.23l2.77,2s-1.5-4.59-2-5.87-.25-1.53-.25-1.53a16.35,16.35,0,0,1,3.47,8.25S899.36,381.11,899.67,380.81Z" transform="translate(-88.58 -43.42)" fill="#ff3c3c" opacity="0.1"/>
      <ellipse id="Elipse_11" data-name="Elipse 11" cx="22.99" cy="2.57" rx="22.99" ry="2.57" transform="translate(178.96 779.02)" fill="#ff3c3c" opacity="0.1"/>
      <ellipse id="Elipse_12" data-name="Elipse 12" cx="22.99" cy="2.57" rx="22.99" ry="2.57" transform="translate(28.25 735.34)" fill="#ff3c3c" opacity="0.1"/>
      <ellipse id="Elipse_13" data-name="Elipse 13" cx="22.99" cy="2.57" rx="22.99" ry="2.57" transform="translate(293.84 808.03)" fill="#ff3c3c" opacity="0.1"/>
      <ellipse id="Elipse_14" data-name="Elipse 14" cx="22.99" cy="2.57" rx="22.99" ry="2.57" transform="translate(882.54 744.84)" fill="#ff3c3c" opacity="0.1"/>
      <ellipse id="Elipse_15" data-name="Elipse 15" cx="22.99" cy="2.57" rx="22.99" ry="2.57" transform="translate(691.23 732.37)" fill="#ff3c3c" opacity="0.1"/>
      <ellipse id="Elipse_16" data-name="Elipse 16" cx="27.19" cy="4.67" rx="27.19" ry="4.67" transform="translate(563.27 788.99)" fill="#ff3c3c" opacity="0.1"/>
      <path id="Caminho_211" data-name="Caminho 211" d="M691.17,790.14s-37.86,19.56-18.3,42.6c0,0,1.84,5,7.16,4.65,0,0-1.06-1.94,3-3.49a19.507,19.507,0,0,0,4.09-2.17,9.609,9.609,0,0,0,3.66-4.89h0s7.74-10.36,1.74-29.53c0,0,.78-5.42.1-6.3l-4.6,6.31s4.75,3.19,5.3,7.88c0,0-5-7.87-6-7-.22.18-2.28,3.45-2.28,3.45s8.24,5.59,8.85,12.85c0,0-4.64-10.17-9.65-11.62L681.37,808s9,5.48,10,13.72c0,0-5.23-10.45-10.57-12.56l-2.11,5.41s8.68,5.52,9.48,12.38c0,0-7.26-11.47-9.87-11.11,0,0-1.64,5.08-1.42,6.65,0,0,6.13,4.1,6.24,8.13,0,0-5.66-7.15-6.53-6.68,0,0-.36,7.19,1.38,10.93,0,0-3-5.34-2.51-10.93a12,12,0,0,0-3.63,5.84s-1.63-3.95,3.74-7.59c0,0,.51-5.59,1.13-6.28,0,0-5.81,2.84-8.28,6.32,0,0,.91-5.19,8.79-7.77l2-5.48s-7.88,3.34-10.31,6.28c0,0,1.75-5.15,10.93-7.62l2.72-5s-7,2.36-10.42,5c0,0,2.65-4.43,11.26-6.47l2.21-3.15s-5.08,1.81-6.5,2.46-1.7.33-1.7.33a18.39,18.39,0,0,1,9.11-4.14S691.52,790.48,691.17,790.14Z" transform="translate(-88.58 -43.42)" fill="#ff3c3c"/>
      <path id="Caminho_213" data-name="Caminho 213" d="M686.65,365s15.3,40,24,36,6.34-21,8-25.66,3.5-40,3.5-40,.84-25,2.5-30.06c1.54-4.65,2.79-28.1,3-31.79V273L726,244l-9.34-2.33-21.66,8-3,17.13-1.17,6.69-.5,2.85Z" transform="translate(-88.58 -43.42)" fill="#be6f72"/>
      <path id="Caminho_214" data-name="Caminho 214" d="M691.69,358.3s14.6,11.95,19,13,7.1,10.37,7.1,10.37" transform="translate(-88.58 -43.42)" opacity="0.1"/>
      <path id="Caminho_215" data-name="Caminho 215" d="M567,366.75s-15.3,40-24,36-6.34-21-8-25.66-3.5-40-3.5-40-.84-25-2.5-30.06c-1.54-4.65-2.79-28.1-3-31.79v-.49l1.66-29,9.34-2.33,21.66,8,3,17.13,1.17,6.69.5,2.85Z" transform="translate(-88.58 -43.42)" fill="#be6f72"/>
      <path id="Caminho_216" data-name="Caminho 216" d="M561,406.59s-11.67,12.83-7.34,15.16,32.34,46,32.34,46,92,11.33,109.35-5.67,17-47.37,17-47.37-13.94,3-15.46,1.37-9.87-9.49-9.87-9.49S569,399.43,561,406.59Z" transform="translate(-88.58 -43.42)" fill="#4b4b5b"/>
      <path id="Caminho_217" data-name="Caminho 217" d="M561,406.59s-11.67,12.83-7.34,15.16,32.34,46,32.34,46,92,11.33,109.35-5.67,17-47.37,17-47.37-13.94,3-15.46,1.37-9.87-9.49-9.87-9.49S569,399.43,561,406.59Z" transform="translate(-88.58 -43.42)" opacity="0.02"/>
      <path id="Caminho_218" data-name="Caminho 218" d="M726.62,244.42l-30,24-9.07.66-3.33.24-55.93,4.1-58-4.24-8.63-.63-11-.8-23-22s16.28-17.44,30.54-29.21c5.62-4.65,10.93-8.41,14.8-9.89l.66-.23A16.46,16.46,0,0,0,580,202c11.26-11.61,21.67-40.26,21.67-40.26s49.67-25.66,43.67,8,22.33,25.34,22.33,25.34l9.34,4.26,3.69,1.69,9.41,4.31,21.23,9.74C728,222.75,726.62,244.42,726.62,244.42Z" transform="translate(-88.58 -43.42)" fill="#be6f72"/>
      <path id="Caminho_219" data-name="Caminho 219" d="M726.69,276.24H526v-.49l1.66-29s16.28-17.44,30.54-29.21l126-5,5.86-6.18,21.23,9.74c16.67,7.66,15.33,29.33,15.33,29.33S728.9,270.54,726.69,276.24Z" transform="translate(-88.58 -43.42)" opacity="0.1"/>
      <path id="Caminho_220" data-name="Caminho 220" d="M726.69,275.24H526v-.49l1.66-29s16.28-17.44,30.54-29.21l126-5,5.86-6.18,21.23,9.74c16.67,7.66,15.33,29.33,15.33,29.33S728.9,269.54,726.69,275.24Z" transform="translate(-88.58 -43.42)" fill="#e7c7ca"/>
      <path id="Caminho_221" data-name="Caminho 221" d="M593.79,193.92s31.66,40.34,73.83-.83,4.67,91.83,4.67,91.83l-91,10.8Z" transform="translate(-88.58 -43.42)" opacity="0.1"/>
      <path id="Caminho_222" data-name="Caminho 222" d="M593.79,195.92s31.66,40.34,73.83-.83,4.67,91.83,4.67,91.83l-91,10.8Z" transform="translate(-88.58 -43.42)" fill="#e7c7ca"/>
      <path id="Caminho_223" data-name="Caminho 223" d="M680.65,203,684,254.09l3.59,17,2.74,13s7,100,5,105,1,9,1.42,11.66-.42,9.34-.09,12.34,0,4.33-7.66,3.26-18.34-2.93-18.34-2.93-27,2-36.33-1.33-27-3.34-27-3.34-26.67.67-35.33-.33-13.34,10.67-19,7.33,6.66-35.66,10.66-45-5.33-33-5.33-33l12-66.57L573,256.09V208.65l.66-.23A16.46,16.46,0,0,0,580,204l3,47.74,94,3.34V201.35" transform="translate(-88.58 -43.42)" opacity="0.1"/>
      <path id="Caminho_224" data-name="Caminho 224" d="M680.65,201,684,252.09l3.59,17,2.74,13s7,100,5,105,1,9,1.42,11.66-.42,9.34-.09,12.34,0,4.33-7.66,3.26-18.34-2.93-18.34-2.93-27,2-36.33-1.33-27-3.34-27-3.34-26.67.67-35.33-.33-13.34,10.67-19,7.33,6.66-35.66,10.66-45-5.33-33-5.33-33l12-66.57L573,254.09V206.65l.66-.23A16.46,16.46,0,0,0,580,202l3,47.74,94,3.34V199.35" transform="translate(-88.58 -43.42)" fill="#e7c7ca"/>
      <path id="Caminho_228" data-name="Caminho 228" d="M793.29,466.42c-2.67,3.33-13,9.33-14,11.33s-13.33,8-19.67,9-26.33,5.34-30,7.67c-2.63,1.68-23.74,7-37.61,9.95a106.738,106.738,0,0,1-11.39,2.05c-6,.33-71.66-22-71.66-22l12.66-13,.7-.24c3.58-1.21,20.12-6.8,29.3-9.46,10.34-3,22.34-15.33,22.34-15.33s17.66-6,20-6.67-6-23.33-6-23.33,38.33-5.32,53.33-9.83,49.67-2.84,56,14.83S796,463.09,793.29,466.42Z" transform="translate(-88.58 -43.42)" fill="#4b4b5b"/>
      <path id="Caminho_229" data-name="Caminho 229" d="M618.62,522.75s-7.66,8-15.33,7.34-34.49,2-34.49,2a53.769,53.769,0,0,0-13.51,7.83c-6.27,4.94-9.6,1-10.22.16l-.11-.16c-3.34,10.51-11,2.5-11,2.5s3.33-32,2.31-36,6.59-10.87,6.59-10.87l9-2.29,22.8-5.84,32.67,11.33Z" transform="translate(-88.58 -43.42)" fill="#e7c7ca"/>
      <path id="Caminho_230" data-name="Caminho 230" d="M551.82,493.26l-6.75,46.82-.11-.16c-3.34,10.51-11,2.5-11,2.5s3.33-32,2.31-36,6.59-10.87,6.59-10.87Z" transform="translate(-88.58 -43.42)" opacity="0.1"/>
      <path id="Caminho_231" data-name="Caminho 231" d="M599,360.08s17.66,6,33,0" transform="translate(-88.58 -43.42)" opacity="0.1"/>
      <path id="Caminho_232" data-name="Caminho 232" d="M659.29,371.42s7.33,3.66,13,0" transform="translate(-88.58 -43.42)" opacity="0.1"/>
      <path id="Caminho_233" data-name="Caminho 233" d="M659.29,380.1s12.33,1.65,14.67-1.68" transform="translate(-88.58 -43.42)" opacity="0.1"/>
      <path id="Caminho_234" data-name="Caminho 234" d="M655.29,398.75s23.16-3,28.91-7" transform="translate(-88.58 -43.42)" opacity="0.1"/>
      <path id="Caminho_235" data-name="Caminho 235" d="M584.62,391.75s13,7.33,22.67,7" transform="translate(-88.58 -43.42)" opacity="0.1"/>
      <path id="Caminho_236" data-name="Caminho 236" d="M692,504.37a106.761,106.761,0,0,1-11.39,2.05c-6,.33-71.66-22-71.66-22l12.66-13,.7-.24c2,1.41,3.64,2.62,4.81,3.54,5.51,4.34,10.83-1.33,12.83-1.33s19.33,14.33,19.33,14.33,16,3.67,18.67,7,12,2.67,13.66,5C692.11,500.44,692.17,502.21,692,504.37Z" transform="translate(-88.58 -43.42)" opacity="0.1"/>
      <path id="Caminho_237" data-name="Caminho 237" d="M568.8,417.75s-16.18.93-25.51-3-40.33-13-49.33-6.63-30.67,12-20.67,37.34,14.67,26,14.67,26a36.1,36.1,0,0,1,8,8.3c3,4.67,31,15.33,38,15.33s19.33,0,36.66,12,33,13.34,33,13.34,22,9,28.85,11,38.15,10.66,45.49,8,12-19.34,12-19.34,3.33-15,1.66-17.33-11-1.67-13.66-5-18.67-7-18.67-7S642,476.42,640,476.42s-7.32,5.66-12.83,1.33a292.694,292.694,0,0,0-34.51-22C580,449.08,568.8,417.75,568.8,417.75Z" transform="translate(-88.58 -43.42)" fill="#4b4b5b"/>
      <path id="Caminho_238" data-name="Caminho 238" d="M536.27,427.42a19.1,19.1,0,0,1,16.39,4.33c8,6.67,34.92,20.06,34.92,20.06" transform="translate(-88.58 -43.42)" opacity="0.1"/>
      <path id="Caminho_239" data-name="Caminho 239" d="M736.29,427s-35.67,5.4-42.33,12.73" transform="translate(-88.58 -43.42)" opacity="0.1"/>
      <path id="Caminho_250" data-name="Caminho 250" d="M561.93,534.81s8.68-19.58,31.86-4.65" transform="translate(-88.58 -43.42)" fill="none" stroke="#000" stroke-miterlimit="10" stroke-width="1" opacity="0.1"/>
      <path id="Caminho_251" data-name="Caminho 251" d="M533.79,245.25l17.7-16s68.63-4.5,71.47,18.83c0,0,24.33-27.66,75.5-21.5l21.65,17.24-59.84,26.26-58.15,20.17-42.83-19.17Z" transform="translate(-88.58 -43.42)" opacity="0.1"/>
      <path id="Caminho_252" data-name="Caminho 252" d="M533.79,246.25l17.7-16s68.63-4.5,71.47,18.83c0,0,24.33-27.66,75.5-21.5l21.65,17.24-59.84,26.26-58.15,20.17-42.83-19.17Z" transform="translate(-88.58 -43.42)" fill="#d5d6db"/>
      <path id="Caminho_253" data-name="Caminho 253" d="M437.38,204.83l7.83,93.67,83,4.17-3.6-93.27-.07-1.57Z" opacity="0.1"/>
      <path id="Caminho_254" data-name="Caminho 254" d="M437.38,202.83l7.83,93.67,83,4.17-3.6-93.27-.07-1.57Z" fill="#ff3c3c"/>
      <path id="Caminho_255" data-name="Caminho 255" d="M635.33,202.83l-85.62,12.84v94.09l83.67-12.09Z" opacity="0.1"/>
      <path id="Caminho_256" data-name="Caminho 256" d="M635.33,200.83l-85.62,12.84v94.09l83.67-12.09Z" fill="#ff3c3c"/>
      <path id="Caminho_257" data-name="Caminho 257" d="M615.14,223.79l-46.25,5.14,1.01,15.76,45.21-4.94Z" fill="#fff" opacity="0.3"/>
      <path id="Caminho_258" data-name="Caminho 258" d="M538.29,390.08,543,402.75s7,6,14.66,3,14.34-4.49,17.67-7.41,8-17.59,8-17.59,4.67-16,9.33-20,17-59.11,0-53.72-30,55.39-30,55.39-3,3.66-7.33,4-13-.67-14.67,3S533.29,382.75,538.29,390.08Z" transform="translate(-88.58 -43.42)" fill="#be6f72"/>
      <path id="Caminho_259" data-name="Caminho 259" d="M638.29,259.08a28.8,28.8,0,0,1-25.11-6.26l3.61,93.26s8.5,9.2,21.5,7.1Z" transform="translate(-88.58 -43.42)" opacity="0.1"/>
      <path id="Caminho_260" data-name="Caminho 260" d="M638.29,257.08a28.8,28.8,0,0,1-25.11-6.26l3.61,93.26s8.5,9.2,21.5,7.1Z" transform="translate(-88.58 -43.42)" fill="#ff3c3c"/>
      <path id="Caminho_261" data-name="Caminho 261" d="M638.29,257.08a28.8,28.8,0,0,1-25.11-6.26l3.61,93.26s8.5,9.2,21.5,7.1Z" transform="translate(-88.58 -43.42)" opacity="0.1"/>
      <path id="Caminho_262" data-name="Caminho 262" d="M640.29,246.57s34.83-10.65,43.91-9.15" transform="translate(-88.58 -43.42)" opacity="0.1"/>
      <path id="Caminho_263" data-name="Caminho 263" d="M601.33,241.92s-33.76-8-39.4-5.73" transform="translate(-88.58 -43.42)" opacity="0.1"/>
      <path id="Caminho_264" data-name="Caminho 264" d="M662.25,247.9s23.29-8.54,31.71-4.48" transform="translate(-88.58 -43.42)" opacity="0.1"/>
      <path id="Caminho_265" data-name="Caminho 265" d="M650.52,462.13A76.565,76.565,0,0,1,662,455c6-2.89,17-10.39,17-10.39" transform="translate(-88.58 -43.42)" opacity="0.1"/>
      <path id="Caminho_266" data-name="Caminho 266" d="M561.93,360.08s-14.61,11.95-19,13-7.1,10.37-7.1,10.37" transform="translate(-88.58 -43.42)" opacity="0.1"/>
      <path id="Caminho_267" data-name="Caminho 267" d="M715.32,388.3,710.66,401s-7,6-14.67,3-14.33-4.49-17.67-7.41-8-17.59-8-17.59-4.66-16-9.33-20-17-59.11,0-53.72,30,55.39,30,55.39,3,3.66,7.33,4,13-.67,14.67,3S720.32,381,715.32,388.3Z" transform="translate(-88.58 -43.42)" fill="#be6f72"/>
      <path id="Caminho_268" data-name="Caminho 268" d="M707.15,364.94s9.55,6.14,9.51,13.48" transform="translate(-88.58 -43.42)" opacity="0.1"/>
      <ellipse id="Elipse_21" data-name="Elipse 21" cx="62" cy="9.51" rx="62" ry="9.51" transform="translate(871.75 706.86)" fill="#ff3c3c" opacity="0.1"/>
    </g>
    <g id="Sapato">
      <path id="Caminho_227" data-name="Caminho 227" d="M581.79,492.73,621.46,494l-5.69-29.42-30.39,2.89Z" fill="#c3c7d9"/>
      <path id="Caminho_240" data-name="Caminho 240" d="M777.29,537.42h-1.57c-5.64-.2-24.75-.8-28.43,0-4.33,1-61.67,0-61.67,0l11.21-2.33s-4.16-14.58-1.52-15.79c0,0-15-9.88-3.69-16.55s23.5-3.86,23.5-3.86l28.39-9.62,5.45-1.85s32,1.67,40.66,23.67S777.29,537.42,777.29,537.42Z" transform="translate(-88.58 -43.42)" fill="#e7c7ca"/>
      <path id="Caminho_241" data-name="Caminho 241" d="M777.29,537.42h-1.57c9.31-7.68,30.37-31.06-32.21-48.1l5.45-1.85s32,1.67,40.66,23.67S777.29,537.42,777.29,537.42Z" transform="translate(-88.58 -43.42)" opacity="0.1"/>
      <circle id="Elipse_18" data-name="Elipse 18" cx="1.75" cy="1.75" r="1.75" transform="translate(628.13 464.58)" fill="#4b4b5b"/>
      <circle id="Elipse_19" data-name="Elipse 19" cx="1.75" cy="1.75" r="1.75" transform="translate(617.96 467.47)" fill="#4b4b5b"/>
      <path id="Caminho_248" data-name="Caminho 248" d="M695.31,519.3s25.31,10.62,42-12.88" transform="translate(-88.58 -43.42)" fill="none" stroke="#000" stroke-miterlimit="10" stroke-width="1" opacity="0.1"/>
      <path id="Caminho_249" data-name="Caminho 249" d="M700.29,537.86s20.67-13.44,47-.44" transform="translate(-88.58 -43.42)" fill="none" stroke="#000" stroke-miterlimit="10" stroke-width="1" opacity="0.1"/>
    </g>
    <g id="Cabeca">
      <rect id="Retângulo_38" data-name="Retângulo 38" width="34.15" height="53.23" transform="translate(543.9 109.27)" fill="#3e373a"/>
      <path id="Caminho_226" data-name="Caminho 226" d="M692.46,93.38c-.57-2.09-1.36-4.26-3-5.66a12.28,12.28,0,0,0-5.28-2.16A104.32,104.32,0,0,0,670.3,82.9a22.22,22.22,0,0,0-3-6.23c-9.8-13.84-24.3-26.89-41.36-29.84-8.93-1.55-19.28-.16-25,6.88-3.14,3.87-4.49,9-7.66,12.8-6.11,7.38-17.14,8.29-24.84,14-4.11,3-7.09,7.35-10,11.57-3.15,4.57-6.39,9.33-7.39,14.79-2,10.91,5.21,21.31,6.54,32.32,3,24.63-23.4,46.48-18.41,70.78,2.91,14.17,16,24.15,29.54,29.21,4.77,1.79,10.22,3.57,12.45,8.15,1,2,1.17,4.31,2.11,6.33,3.16,6.74,13.55,7,19.13,2.09s7.34-12.85,8-20.26c2.68-32.36-10.28-64.33-8.77-96.77.45-9.81,3.21-20.94,12-25.38,11.83-6,26.06,4,39.08,2.09a77.529,77.529,0,0,1,3.74,47.31c-2.07,8.63-5.65,17-5.91,25.9-.39,13.55,6.92,25.93,13.24,37.91a20.172,20.172,0,0,1,2.67,7.31,17.62,17.62,0,0,1-1.43,7.65c-3.57,9.61-9.73,18.53-10.43,28.76a4.65,4.65,0,0,0,.75,3.42,4.3,4.3,0,0,0,2.58,1.16c10.8,1.85,20.14-7.72,25.41-17.33A81.24,81.24,0,0,0,693.36,223c1.09-20.36-6.21-40.39-5.76-60.77C688.12,139.06,698.59,115.73,692.46,93.38Z" transform="translate(-88.58 -43.42)" fill="#3e373a"/>
      <circle id="Elipse_20" data-name="Elipse 20" cx="44.67" cy="44.67" r="44.67" transform="translate(492.87 54.2)" fill="#be6f72"/>
      <path id="Caminho_269" data-name="Caminho 269" d="M598.07,130.3c5.42-.85,10.17-4,15.35-5.81,11.59-4.07,24.41-1.28,36.14,2.39,4.5,1.41,9.07,3,13.79,3s9.73-1.93,12.14-6c2.22-3.74,1.79-8.6-.08-12.53s-5-7.09-8.16-10.07c-10.4-9.82-23.3-19-37.57-18-5.74.41-11.23,2.46-16.51,4.73a182,182,0,0,0-19.38,9.76c-4.81,2.79-13.72,6.52-16.49,11.62C571,120.88,588.27,131.84,598.07,130.3Z" transform="translate(-88.58 -43.42)" fill="#3e373a"/>
    </g>
  </g>
</svg>
